<svg xmlns="http://www.w3.org/2000/svg" width="24" height="24" viewBox="0 0 24 24"><defs><style>.a{fill:#555;}</style></defs><title>resume</title><path class="a" d="M9.67,8.3A1.76,1.76,0,1,0,7.89,6.54,1.77,1.77,0,0,0,9.67,8.3Z"/><path class="a" d="M17.2,5.1H21L16.53.55V4.44a.66.66,0,0,0,.67.66Z"/><path class="a" d="M13.12,13.36a2.87,2.87,0,0,0-2.89-2.83H9.1a2.86,2.86,0,0,0-2.87,2.83v.27h6.89Z"/><path class="a" d="M15.64,4.44V-.1H4.18A1.79,1.79,0,0,0,2.37,1.67V22.48a1.81,1.81,0,0,0,1.81,1.78H19.82a1.81,1.81,0,0,0,1.81-1.78V6H17.2a1.55,1.55,0,0,1-1.56-1.54Zm-6-.55A2.65,2.65,0,1,1,7,6.54,2.67,2.67,0,0,1,9.67,3.89ZM5.34,13.36A3.73,3.73,0,0,1,9.08,9.64h1.15A3.75,3.75,0,0,1,14,13.36v.7a.47.47,0,0,1-.47.45H5.79a.45.45,0,0,1-.45-.45Zm0,3.81H13.1a.45.45,0,0,1,.45.44.44.44,0,0,1-.45.44H5.39a.44.44,0,0,1-.45-.44A.45.45,0,0,1,5.39,17.17ZM18.72,20.6a.44.44,0,0,1-.45.44H5.39a.44.44,0,0,1-.45-.44.45.45,0,0,1,.45-.44H18.27A.45.45,0,0,1,18.72,20.6Z"/></svg>